<svg width="24" height="16" viewBox="0 0 24 16" fill="none" xmlns="http://www.w3.org/2000/svg">
<path d="M20.8047 5.38816V3C20.8047 1.89543 19.9093 1 18.8047 1H3C1.89543 1 1 1.89543 1 3V13.5C1 14.6046 1.89543 15.5 3 15.5H18.8047C19.9093 15.5 20.8047 14.6046 20.8047 13.5V11.6333" stroke="#3D2E64"/>
<path d="M9.9353 8.44092C9.9353 6.71503 11.3344 5.31592 13.0603 5.31592H20.1137C21.8396 5.31592 23.2387 6.71503 23.2387 8.44092C23.2387 10.1668 21.8396 11.5659 20.1137 11.5659H13.0603C11.3344 11.5659 9.9353 10.1668 9.9353 8.44092Z" stroke="#3D2E64"/>
<line x1="13.2361" y1="8.51318" x2="15.9036" y2="8.51318" stroke="#3D2E64" stroke-linecap="round"/>
</svg>
