<svg width="29" height="16" viewBox="0 0 29 16" fill="none" xmlns="http://www.w3.org/2000/svg">
<path fill-rule="evenodd" clip-rule="evenodd" d="M1.16 7.00002H27.84C28.4806 7.00002 29 7.44773 29 8.00001C29 8.55229 28.4806 9 27.84 9H1.16C0.519361 9 0 8.55229 0 8.00001C0 7.44773 0.519361 7.00002 1.16 7.00002Z" fill="white"/>
<path fill-rule="evenodd" clip-rule="evenodd" d="M1 2.2e-05H24C24.5523 2.2e-05 25 0.44773 25 1.00001C25 1.55229 24.5523 2 24 2H1C0.447725 2 0 1.55229 0 1.00001C0 0.44773 0.447725 2.2e-05 1 2.2e-05Z" fill="white"/>
<path fill-rule="evenodd" clip-rule="evenodd" d="M1.14286 14H18.8571C19.4883 14 20 14.4477 20 15C20 15.5523 19.4883 16 18.8571 16H1.14286C0.51168 16 0 15.5523 0 15C0 14.4477 0.51168 14 1.14286 14Z" fill="white"/>
</svg>
